<svg xmlns="http://www.w3.org/2000/svg" width="27" height="24" viewBox="0 0 27 24" fill="none">
  <path d="M12.3428 22.7425C12.6538 23.0534 13.0718 23.2268 13.5102 23.2268C13.9435 23.2268 14.3717 23.0483 14.6776 22.7425L23.8385 13.5816C25.2302 12.1898 25.9949 10.3393 26 8.37663C26 6.40885 25.2353 4.55832 23.8436 3.1666C22.4519 1.77488 20.6064 1.0102 18.6387 1.0102C16.7066 1.0102 14.8866 1.74939 13.5051 3.09523C12.1185 1.74429 10.2934 1 8.35624 1C6.39356 1 4.54812 1.76468 3.1564 3.15131C1.76468 4.54303 1 6.39356 1 8.36134C1 10.324 1.76978 12.1746 3.1615 13.5663L12.3428 22.7425ZM4.04343 4.03834C5.19555 2.88622 6.73002 2.24898 8.36134 2.24898C9.99266 2.24898 11.5322 2.88622 12.6894 4.04343L13.0667 4.42068C13.1839 4.53793 13.342 4.6042 13.5102 4.6042C13.6733 4.6042 13.8365 4.53793 13.9537 4.42068L14.3208 4.05363C15.478 2.89641 17.0124 2.25918 18.6489 2.25918C20.2802 2.25918 21.8146 2.89641 22.9668 4.04853C24.124 5.20575 24.7561 6.74021 24.7561 8.37153C24.7561 10.0029 24.1189 11.5373 22.9617 12.6945L13.7957 21.8605C13.6478 22.0084 13.3777 22.0084 13.2247 21.8605L4.04853 12.6843C2.89131 11.5271 2.25408 9.99266 2.25408 8.36134C2.25408 6.73002 2.89131 5.19555 4.04343 4.03834Z" fill="black" stroke="black" stroke-width="0.3"/>
</svg>